<svg xmlns="http://www.w3.org/2000/svg" viewBox="0 0 64 64" role="img" aria-label="Garden favicon">
  <defs>
    <linearGradient id="gardenBg" x1="8" y1="6" x2="58" y2="58" gradientUnits="userSpaceOnUse">
      <stop offset="0" stop-color="#a7cf74" />
      <stop offset="1" stop-color="#4d7d42" />
    </linearGradient>
  </defs>
  <rect x="4" y="4" width="56" height="56" rx="16" fill="url(#gardenBg)" />
  <circle cx="18" cy="17" r="12" fill="#ffffff" opacity=".12" />
  <rect x="15" y="29" width="34" height="19" rx="6" fill="#fff8eb" />
  <path d="M22 29v19M32 29v19M42 29v19" fill="none" stroke="#dfd1af" stroke-width="2.5" />
  <path
    d="M25.5 26.5c0-3.6 2.4-6.5 5.4-6.5 0 3.6-2.4 6.5-5.4 6.5Zm7 0c0-4 2.7-7.2 6.1-7.2 0 4-2.7 7.2-6.1 7.2Z"
    fill="#f4fff0"
  />
  <path d="M31 26.5v6.5M38 26.5V31" fill="none" stroke="#f4fff0" stroke-linecap="round" stroke-width="2.5" />
</svg>
