<svg xmlns="http://www.w3.org/2000/svg" viewBox="0 0 64 64" role="img" aria-label="Home favicon">
  <defs>
    <linearGradient id="homeBg" x1="10" y1="6" x2="56" y2="58" gradientUnits="userSpaceOnUse">
      <stop offset="0" stop-color="#fffdf9" />
      <stop offset="1" stop-color="#f1ece4" />
    </linearGradient>
  </defs>
  <rect x="4" y="4" width="56" height="56" rx="20" fill="url(#homeBg)" />
  <rect x="4.75" y="4.75" width="54.5" height="54.5" rx="19.25" fill="none" stroke="#e6ddd0" stroke-width="1.5" />
  <circle cx="18" cy="16" r="11" fill="#ffffff" opacity=".85" />

  <g transform="translate(21 21)">
    <circle r="8.5" fill="#fff7ee" />
    <path d="M-3.3-1.4a3.3 3.3 0 0 1 6.6 0" fill="none" stroke="#ff9f43" stroke-linecap="round" stroke-width="1.7" />
    <path d="M-5 .6h10l-.9 5.7a2.1 2.1 0 0 1-2.1 1.7h-4a2.1 2.1 0 0 1-2.1-1.7Z" fill="#ff9f43" />
    <path d="M-2 2.3v3.1M0 2.3v3.1M2 2.3v3.1" fill="none" stroke="#fff7ee" stroke-linecap="round" stroke-width="1.2" />
  </g>

  <g transform="translate(43 21)">
    <circle r="8.5" fill="#eef4ff" />
    <path d="M-4 .5-2 2.7 1.6-1.5" fill="none" stroke="#3f7cff" stroke-linecap="round" stroke-linejoin="round" stroke-width="1.8" />
    <path d="M-1.4 2.1.6 4.1 4.6-.4" fill="none" stroke="#3f7cff" stroke-linecap="round" stroke-linejoin="round" stroke-width="1.8" />
  </g>

  <g transform="translate(32 32)">
    <circle r="8.5" fill="#f0f4f1" />
    <rect x="-3.9" y="-4.7" width="1.8" height="6.2" rx=".9" fill="#6b8474" />
    <rect x="-5.3" y="-4.7" width=".9" height="4.1" rx=".45" fill="#6b8474" />
    <rect x="-3" y="-4.7" width=".9" height="4.1" rx=".45" fill="#f0f4f1" />
    <rect x="-.5" y="-4.7" width=".9" height="4.1" rx=".45" fill="#6b8474" />
    <rect x="-3.9" y="1.1" width="1.8" height="4.9" rx=".9" fill="#6b8474" />
    <path d="M2.7-4.5a3.2 3.2 0 1 1 0 6.4Z" fill="#dca64a" />
    <rect x="2.7" y="-1.3" width="1.8" height="7.3" rx=".9" fill="#dca64a" />
  </g>

  <g transform="translate(21 43)">
    <circle r="8.5" fill="#eef7e8" />
    <path d="M0 1.1v4.2" fill="none" stroke="#5d8f49" stroke-linecap="round" stroke-width="1.7" />
    <path d="M-.4 1c-2.5 0-4.5-1.9-4.5-4.4 2.5 0 4.5 1.9 4.5 4.4Z" fill="#5d8f49" />
    <path d="M.4-1.1c0-2.6 1.8-4.7 4.2-4.7 0 2.6-1.8 4.7-4.2 4.7Z" fill="#7dbb68" />
  </g>

  <g transform="translate(43 43)">
    <circle r="8.5" fill="#f7f3ff" />
    <rect x="-4.8" y="-.4" width="9.6" height="6.8" rx="1.5" fill="#a78bfa" />
    <rect x="-5.7" y="-3.8" width="11.4" height="3.7" rx="1.5" fill="#a78bfa" />
    <path d="M-1 2.2h2v4.2h-2z" fill="#f7f3ff" />
    <path d="M-4.8 1.4h9.6" fill="none" stroke="#f7f3ff" stroke-width="1.4" />
    <path d="M-.6-6c-2.1 0-3.5 1.3-3.5 3 0 1.4 1.1 2.8 4.1 2.8H1V-6H-.6Z" fill="#ffd76c" />
    <path d="M.6-6c2.1 0 3.5 1.3 3.5 3 0 1.4-1.1 2.8-4.1 2.8H-1V-6H.6Z" fill="#ffd76c" />
  </g>
</svg>
