<svg xmlns="http://www.w3.org/2000/svg" viewBox="0 0 64 64" role="img" aria-label="Wishlist favicon">
  <rect x="4" y="4" width="56" height="56" rx="14" fill="#fff8ef" />
  <rect x="14" y="23" width="36" height="27" rx="5" fill="#ffffff" stroke="#334155" stroke-width="4" />
  <path d="M14 32h36" stroke="#334155" stroke-width="4" />
  <path d="M32 23v27" stroke="#fb923c" stroke-width="4" />
  <path d="M24.5 23c-3.7 0-6.5-2.7-6.5-6 0-3.1 2.3-5.5 5.4-5.5 3.4 0 5.6 3.1 8.6 8.4-2.4 2-4.9 3.1-7.5 3.1ZM39.5 23c3.7 0 6.5-2.7 6.5-6 0-3.1-2.3-5.5-5.4-5.5-3.4 0-5.6 3.1-8.6 8.4 2.4 2 4.9 3.1 7.5 3.1Z" fill="#fbbf24" stroke="#334155" stroke-linejoin="round" stroke-width="2.5" />
</svg>
